<svg width="651" height="651" viewBox="0 0 651 651" fill="none" xmlns="http://www.w3.org/2000/svg">
<rect x="0.5" y="0.5" width="650" height="650" rx="180" fill="#100D09"/>
<rect x="0.5" y="0.5" width="650" height="650" rx="180" stroke="black"/>
<path d="M216.622 371.28C211.373 390.871 213.074 411.675 221.436 430.147C229.797 448.619 244.303 463.616 262.48 472.583C280.657 481.55 301.381 483.932 321.121 479.323C340.861 474.714 358.396 463.4 370.738 447.307C383.08 431.215 389.465 411.341 388.805 391.07C388.146 370.8 380.482 351.388 367.121 336.142C353.759 320.896 335.526 310.76 315.529 307.46C295.531 304.159 275.006 307.9 257.451 318.044L458.291 194.972" stroke="#EDE9E1" stroke-width="58"/>
</svg>
